<svg width="420" height="460" viewBox="0 0 420 460" fill="none" xmlns="http://www.w3.org/2000/svg">
<g clip-path="url(#clip0_1_2)">
<path d="M372 40H48C21.4903 40 0 61.4903 0 88V412C0 438.51 21.4903 460 48 460H372C398.51 460 420 438.51 420 412V88C420 61.4903 398.51 40 372 40Z" fill="#2B8AF6"/>
<path d="M104 0H72C63.1634 0 56 7.16344 56 16V68C56 76.8366 63.1634 84 72 84H104C112.837 84 120 76.8366 120 68V16C120 7.16344 112.837 0 104 0Z" fill="#1867C7"/>
<path d="M348 0H316C307.163 0 300 7.16344 300 16V68C300 76.8366 307.163 84 316 84H348C356.837 84 364 76.8366 364 68V16C364 7.16344 356.837 0 348 0Z" fill="#1867C7"/>
<path d="M372.069 84H47.931C33.6097 84 22 95.8396 22 110.444V414.556C22 429.16 33.6097 441 47.931 441H372.069C386.39 441 398 429.16 398 414.556V110.444C398 95.8396 386.39 84 372.069 84Z" fill="white" fill-opacity="0.6"/>
<path d="M120 246L192 314L312 186" stroke="#2B8AF6" stroke-width="48" stroke-linecap="round" stroke-linejoin="round"/>
</g>
<defs>
<clipPath id="clip0_1_2">
<rect width="420" height="460" fill="white"/>
</clipPath>
</defs>
</svg>
