<svg width="1400" height="600" viewBox="0 0 1400 600" fill="none" xmlns="http://www.w3.org/2000/svg">
<g clip-path="url(#clip0_1_3)">
<path d="M452 100H128C101.49 100 80 121.49 80 148V472C80 498.51 101.49 520 128 520H452C478.51 520 500 498.51 500 472V148C500 121.49 478.51 100 452 100Z" fill="#2B8AF6"/>
<path d="M440 148H140C126.745 148 116 158.745 116 172V448C116 461.255 126.745 472 140 472H440C453.255 472 464 461.255 464 448V172C464 158.745 453.255 148 440 148Z" fill="white"/>
<path d="M184 60H152C143.163 60 136 67.1634 136 76V128C136 136.837 143.163 144 152 144H184C192.837 144 200 136.837 200 128V76C200 67.1634 192.837 60 184 60Z" fill="#1867C7"/>
<path d="M428 60H396C387.163 60 380 67.1634 380 76V128C380 136.837 387.163 144 396 144H428C436.837 144 444 136.837 444 128V76C444 67.1634 436.837 60 428 60Z" fill="#1867C7"/>
<path d="M200 320L272 388L392 260" stroke="#2B8AF6" stroke-width="48" stroke-linecap="round" stroke-linejoin="round"/>
<path d="M569.96 316V232H606.32C613.84 232 620.32 233.24 625.76 235.72C631.2 238.12 635.4 241.6 638.36 246.16C641.32 250.72 642.8 256.16 642.8 262.48C642.8 268.72 641.32 274.12 638.36 278.68C635.4 283.16 631.2 286.6 625.76 289C620.32 291.4 613.84 292.6 606.32 292.6H580.76L589.4 284.08V316H569.96ZM623.36 316L602.36 285.52H623.12L644.36 316H623.36ZM589.4 286.24L580.76 277.12H605.24C611.24 277.12 615.72 275.84 618.68 273.28C621.64 270.64 623.12 267.04 623.12 262.48C623.12 257.84 621.64 254.24 618.68 251.68C615.72 249.12 611.24 247.84 605.24 247.84H580.76L589.4 238.6V286.24ZM688.922 316.96C681.562 316.96 675.082 315.52 669.482 312.64C663.962 309.76 659.682 305.84 656.642 300.88C653.602 295.84 652.082 290.12 652.082 283.72C652.082 277.24 653.562 271.52 656.522 266.56C659.562 261.52 663.682 257.6 668.882 254.8C674.082 251.92 679.962 250.48 686.522 250.48C692.842 250.48 698.522 251.84 703.562 254.56C708.682 257.2 712.722 261.04 715.682 266.08C718.642 271.04 720.122 277 720.122 283.96C720.122 284.68 720.082 285.52 720.002 286.48C719.922 287.36 719.842 288.2 719.762 289H667.322V278.08H709.922L702.722 281.32C702.722 277.96 702.042 275.04 700.682 272.56C699.322 270.08 697.442 268.16 695.042 266.8C692.642 265.36 689.842 264.64 686.642 264.64C683.442 264.64 680.602 265.36 678.122 266.8C675.722 268.16 673.842 270.12 672.482 272.68C671.122 275.16 670.442 278.12 670.442 281.56V284.44C670.442 287.96 671.202 291.08 672.722 293.8C674.322 296.44 676.522 298.48 679.322 299.92C682.202 301.28 685.562 301.96 689.402 301.96C692.842 301.96 695.842 301.44 698.402 300.4C701.042 299.36 703.442 297.8 705.602 295.72L715.562 306.52C712.602 309.88 708.882 312.48 704.402 314.32C699.922 316.08 694.762 316.96 688.922 316.96ZM754.305 316.96C748.785 316.96 743.465 316.32 738.345 315.04C733.305 313.68 729.305 312 726.345 310L732.585 296.56C735.545 298.4 739.025 299.92 743.025 301.12C747.105 302.24 751.105 302.8 755.025 302.8C759.345 302.8 762.385 302.28 764.145 301.24C765.985 300.2 766.905 298.76 766.905 296.92C766.905 295.4 766.185 294.28 764.745 293.56C763.385 292.76 761.545 292.16 759.225 291.76C756.905 291.36 754.345 290.96 751.545 290.56C748.825 290.16 746.065 289.64 743.265 289C740.465 288.28 737.905 287.24 735.585 285.88C733.265 284.52 731.385 282.68 729.945 280.36C728.585 278.04 727.905 275.04 727.905 271.36C727.905 267.28 729.065 263.68 731.385 260.56C733.785 257.44 737.225 255 741.705 253.24C746.185 251.4 751.545 250.48 757.785 250.48C762.185 250.48 766.665 250.96 771.225 251.92C775.785 252.88 779.585 254.28 782.625 256.12L776.385 269.44C773.265 267.6 770.105 266.36 766.905 265.72C763.785 265 760.745 264.64 757.785 264.64C753.625 264.64 750.585 265.2 748.665 266.32C746.745 267.44 745.785 268.88 745.785 270.64C745.785 272.24 746.465 273.44 747.825 274.24C749.265 275.04 751.145 275.68 753.465 276.16C755.785 276.64 758.305 277.08 761.025 277.48C763.825 277.8 766.625 278.32 769.425 279.04C772.225 279.76 774.745 280.8 776.985 282.16C779.305 283.44 781.185 285.24 782.625 287.56C784.065 289.8 784.785 292.76 784.785 296.44C784.785 300.44 783.585 304 781.185 307.12C778.785 310.16 775.305 312.56 770.745 314.32C766.265 316.08 760.785 316.96 754.305 316.96ZM828.375 316.96C821.015 316.96 814.535 315.52 808.935 312.64C803.415 309.76 799.135 305.84 796.095 300.88C793.055 295.84 791.535 290.12 791.535 283.72C791.535 277.24 793.015 271.52 795.975 266.56C799.015 261.52 803.135 257.6 808.335 254.8C813.535 251.92 819.415 250.48 825.975 250.48C832.295 250.48 837.975 251.84 843.015 254.56C848.135 257.2 852.175 261.04 855.135 266.08C858.095 271.04 859.575 277 859.575 283.96C859.575 284.68 859.535 285.52 859.455 286.48C859.375 287.36 859.295 288.2 859.215 289H806.775V278.08H849.375L842.175 281.32C842.175 277.96 841.495 275.04 840.135 272.56C838.775 270.08 836.895 268.16 834.495 266.8C832.095 265.36 829.295 264.64 826.095 264.64C822.895 264.64 820.055 265.36 817.575 266.8C815.175 268.16 813.295 270.12 811.935 272.68C810.575 275.16 809.895 278.12 809.895 281.56V284.44C809.895 287.96 810.655 291.08 812.175 293.8C813.775 296.44 815.975 298.48 818.775 299.92C821.655 301.28 825.015 301.96 828.855 301.96C832.295 301.96 835.295 301.44 837.855 300.4C840.495 299.36 842.895 297.8 845.055 295.72L855.015 306.52C852.055 309.88 848.335 312.48 843.855 314.32C839.375 316.08 834.215 316.96 828.375 316.96ZM872.038 316V251.44H889.918V269.68L887.398 264.4C889.318 259.84 892.398 256.4 896.638 254.08C900.878 251.68 906.038 250.48 912.118 250.48V267.76C911.318 267.68 910.598 267.64 909.958 267.64C909.318 267.56 908.638 267.52 907.918 267.52C902.798 267.52 898.638 269 895.438 271.96C892.318 274.84 890.758 279.36 890.758 285.52V316H872.038ZM942.996 316L915.876 251.44H935.196L957.756 307H948.156L971.556 251.44H989.556L962.316 316H942.996ZM1027.48 316.96C1020.12 316.96 1013.64 315.52 1008.04 312.64C1002.52 309.76 998.237 305.84 995.197 300.88C992.157 295.84 990.637 290.12 990.637 283.72C990.637 277.24 992.117 271.52 995.077 266.56C998.117 261.52 1002.24 257.6 1007.44 254.8C1012.64 251.92 1018.52 250.48 1025.08 250.48C1031.4 250.48 1037.08 251.84 1042.12 254.56C1047.24 257.2 1051.28 261.04 1054.24 266.08C1057.2 271.04 1058.68 277 1058.68 283.96C1058.68 284.68 1058.64 285.52 1058.56 286.48C1058.48 287.36 1058.4 288.2 1058.32 289H1005.88V278.08H1048.48L1041.28 281.32C1041.28 277.96 1040.6 275.04 1039.24 272.56C1037.88 270.08 1036 268.16 1033.6 266.8C1031.2 265.36 1028.4 264.64 1025.2 264.64C1022 264.64 1019.16 265.36 1016.68 266.8C1014.28 268.16 1012.4 270.12 1011.04 272.68C1009.68 275.16 1009 278.12 1009 281.56V284.44C1009 287.96 1009.76 291.08 1011.28 293.8C1012.88 296.44 1015.08 298.48 1017.88 299.92C1020.76 301.28 1024.12 301.96 1027.96 301.96C1031.4 301.96 1034.4 301.44 1036.96 300.4C1039.6 299.36 1042 297.8 1044.16 295.72L1054.12 306.52C1051.16 309.88 1047.44 312.48 1042.96 314.32C1038.48 316.08 1033.32 316.96 1027.48 316.96ZM1092.18 317.68C1085.55 317.68 1079.44 316.467 1073.84 314.04C1068.33 311.52 1063.81 307.973 1060.26 303.4L1072.86 288.28C1075.57 291.827 1078.41 294.533 1081.4 296.4C1084.39 298.173 1087.61 299.06 1091.06 299.06C1100.3 299.06 1104.92 293.647 1104.92 282.82V236.2H1070.48V218H1127.46V281.56C1127.46 293.693 1124.47 302.747 1118.5 308.72C1112.53 314.693 1103.75 317.68 1092.18 317.68ZM1194.52 316V301.3L1193.12 298.08V271.76C1193.12 267.093 1191.68 263.453 1188.78 260.84C1185.98 258.227 1181.64 256.92 1175.76 256.92C1171.75 256.92 1167.78 257.573 1163.86 258.88C1160.04 260.093 1156.77 261.773 1154.06 263.92L1146.22 248.66C1150.33 245.767 1155.28 243.527 1161.06 241.94C1166.85 240.353 1172.73 239.56 1178.7 239.56C1190.18 239.56 1199.1 242.267 1205.44 247.68C1211.79 253.093 1214.96 261.54 1214.96 273.02V316H1194.52ZM1171.56 317.12C1165.68 317.12 1160.64 316.14 1156.44 314.18C1152.24 312.127 1149.02 309.373 1146.78 305.92C1144.54 302.467 1143.42 298.593 1143.42 294.3C1143.42 289.82 1144.5 285.9 1146.64 282.54C1148.88 279.18 1152.38 276.567 1157.14 274.7C1161.9 272.74 1168.11 271.76 1175.76 271.76H1195.78V284.5H1178.14C1173.01 284.5 1169.46 285.34 1167.5 287.02C1165.64 288.7 1164.7 290.8 1164.7 293.32C1164.7 296.12 1165.78 298.36 1167.92 300.04C1170.16 301.627 1173.2 302.42 1177.02 302.42C1180.66 302.42 1183.93 301.58 1186.82 299.9C1189.72 298.127 1191.82 295.56 1193.12 292.2L1196.48 302.28C1194.9 307.133 1192 310.82 1187.8 313.34C1183.6 315.86 1178.19 317.12 1171.56 317.12ZM1168.2 231.02L1187.1 210.86H1210.62L1185.28 231.02H1168.2Z" fill="#1565C0"/>
</g>
<defs>
<clipPath id="clip0_1_3">
<rect width="1400" height="600" fill="white"/>
</clipPath>
</defs>
</svg>
