<?xml version="1.0" encoding="UTF-8"?>
<svg version="1.1" xmlns="http://www.w3.org/2000/svg" width="256" height="253">
<path d="M0 0 C3.16450314 1.99450074 4.12555071 3.84485142 5.82421875 7.2421875 C5.82421875 10.5421875 5.82421875 13.8421875 5.82421875 17.2421875 C34.20421875 17.2421875 62.58421875 17.2421875 91.82421875 17.2421875 C91.82421875 14.2721875 91.82421875 11.3021875 91.82421875 8.2421875 C93.06729371 4.51296263 94.12435077 2.79471485 97.19921875 0.3671875 C103.35762 -1.54404047 110.69407879 -2.28781088 116.61328125 0.60546875 C119.67323401 2.8706988 120.57738181 4.63292268 121.82421875 8.2421875 C122.0546041 11.5927919 122.00308117 14.89017327 121.82421875 18.2421875 C122.44167969 18.24476562 123.05914062 18.24734375 123.6953125 18.25 C130.82856197 18.57571915 135.4399045 20.55297939 140.82421875 25.2421875 C148.21718014 33.80245858 148.25996693 44.69470767 148.1965332 55.45336914 C148.19896623 56.8589454 148.20269048 58.26451992 148.20759583 59.67008972 C148.21693782 63.45933114 148.20763671 67.24831122 148.1942637 71.03753209 C148.18287766 75.01846517 148.18706215 78.99938672 148.18901062 82.98033142 C148.18989124 89.66214219 148.17886098 96.34385106 148.16040039 103.02563477 C148.13922767 110.73283546 148.13572615 118.4398871 148.14196235 126.147111 C148.14767145 133.58591671 148.14199272 141.02467035 148.1307888 148.46346855 C148.12616414 151.61834115 148.12525966 154.77318167 148.12737465 157.92805672 C148.12926853 161.64721403 148.1210698 165.36622122 148.10531425 169.08534431 C148.09909978 171.08857402 148.10256211 173.09182656 148.10638428 175.09506226 C148.04507009 185.56296671 147.51773795 194.49805304 139.82421875 202.2421875 C133.76879773 206.93513879 129.00136054 208.36300982 121.36077881 208.38262939 C120.71372081 208.38560052 120.06666281 208.38857164 119.399997 208.3916328 C117.23377391 208.40029801 115.06760623 208.4018262 112.90136719 208.40332031 C111.34727358 208.40795006 109.79318112 208.41297493 108.23908997 208.41836548 C104.01785035 208.43147708 99.79662663 208.43793211 95.57536983 208.44237614 C92.93667068 208.44530908 90.29797585 208.44941433 87.65927887 208.45388031 C79.39928672 208.46755245 71.13930447 208.47722029 62.87930179 208.4810822 C53.35211402 208.48556132 43.82506983 208.5031036 34.29792571 208.5320828 C26.92877591 208.5537179 19.55966645 208.56378747 12.19048524 208.56512332 C7.79158395 208.56617011 3.39281768 208.57205093 -1.00605011 208.58994293 C-5.14619295 208.6064551 -9.28609972 208.60856392 -13.42626381 208.59980392 C-14.9419423 208.59903521 -16.45763365 208.60335438 -17.97327995 208.61326218 C-26.92328987 208.66831583 -34.08444532 208.43907285 -41.86328125 203.5546875 C-47.95446358 197.46350517 -50.28975947 191.61532692 -50.32295227 183.09591675 C-50.33010757 181.83433243 -50.33726288 180.57274811 -50.34463501 179.27293396 C-50.34747511 177.87710596 -50.35018686 176.48127769 -50.3527832 175.08544922 C-50.35905076 173.61341696 -50.36569782 172.14138627 -50.37269592 170.6693573 C-50.39370794 165.83687434 -50.40409716 161.00439118 -50.4140625 156.171875 C-50.41811144 154.50544341 -50.4222284 152.83901198 -50.42641258 151.17258072 C-50.44545973 143.34080399 -50.45969051 135.50903664 -50.46802455 127.67724121 C-50.47778882 118.65148963 -50.50408906 109.62598382 -50.54452544 100.60031879 C-50.57474126 93.61499958 -50.58949868 86.6297506 -50.59280556 79.64436734 C-50.59515024 75.47673765 -50.60403417 71.30937066 -50.62926674 67.14181137 C-50.65264782 63.21664982 -50.65674079 59.29192205 -50.64650536 55.36670876 C-50.64601228 53.93248992 -50.65226503 52.49824901 -50.6660614 51.06409645 C-50.75269255 41.51826998 -50.04316499 33.47407155 -44.23828125 25.62109375 C-38.35638926 20.44101842 -32.87984597 18.49360918 -25.17578125 17.2421875 C-25.2221875 16.67371094 -25.26859375 16.10523437 -25.31640625 15.51953125 C-25.59830529 9.48890541 -24.8417614 6.09713418 -21.17578125 1.2421875 C-15.14859025 -1.94178796 -6.41488826 -2.23426988 0 0 Z M-28.17578125 46.2421875 C-28.79616054 48.74267961 -28.79616054 48.74267961 -28.72840881 51.62522888 C-28.74954742 52.74265472 -28.77068604 53.86008057 -28.79246521 55.0113678 C-28.79529007 56.23794601 -28.79811493 57.46452423 -28.80102539 58.72827148 C-28.81939453 60.01950928 -28.83776367 61.31074707 -28.85668945 62.64111328 C-28.9059824 66.18446895 -28.92989595 69.72757571 -28.94794393 73.27121234 C-28.9652764 76.22861889 -28.99489885 79.1858497 -29.02451986 82.14315468 C-29.09419072 89.11954407 -29.14333558 96.09587177 -29.17944336 103.07250977 C-29.21702799 110.27166031 -29.28740627 117.46995527 -29.37426096 124.6686663 C-29.44775335 130.84783934 -29.50173645 137.02696906 -29.53987211 143.20646149 C-29.56279814 146.89783116 -29.59295076 150.58877572 -29.64149666 154.27990532 C-29.69453568 158.39568066 -29.70681656 162.51060039 -29.71508789 166.62670898 C-29.73613083 167.85126297 -29.75717377 169.07581696 -29.77885437 170.33747864 C-29.77461456 171.4577243 -29.77037476 172.57796997 -29.76600647 173.73216248 C-29.7727945 174.70536658 -29.77958254 175.67857069 -29.78657627 176.68126583 C-29.35263239 179.43358136 -29.35263239 179.43358136 -27.02120972 181.55523872 C-23.72136682 183.51159293 -21.87160076 183.74264497 -18.05870056 183.74339294 C-16.2143618 183.75814415 -16.2143618 183.75814415 -14.33276367 183.77319336 C-12.9782687 183.76382231 -11.6237765 183.75404303 -10.26928711 183.74389648 C-8.83662892 183.74768128 -7.4039744 183.75318264 -5.97132874 183.76026917 C-2.08702666 183.77421915 1.79683225 183.76305808 5.68110967 183.74655795 C9.74716231 183.73269888 13.81318946 183.7391684 17.8792572 183.74269104 C24.70611711 183.74539218 31.53280109 183.73192484 38.35961914 183.70874023 C46.25260935 183.68212038 54.14530564 183.68038709 62.03832537 183.6921286 C69.63253163 183.70290635 77.22663157 183.69672004 84.82082939 183.68257332 C88.05241852 183.67681454 91.28392982 183.6768953 94.5155201 183.68163872 C98.32002256 183.68640989 102.12420298 183.67630133 105.92864418 183.65468407 C107.32504439 183.64911828 108.72147556 183.64864902 110.11787796 183.65363693 C112.02329972 183.6595897 113.92875275 183.64525141 115.8341217 183.62986755 C117.43383111 183.62622271 117.43383111 183.62622271 119.06585789 183.62250423 C122.26927105 183.18082467 123.64138297 182.62835701 125.82421875 180.2421875 C126.42917136 177.74058016 126.42917136 177.74058016 126.33888245 174.85914612 C126.35796913 173.18300735 126.35796913 173.18300735 126.37744141 171.4730072 C126.36765259 169.63313988 126.36765259 169.63313988 126.35766602 167.75610352 C126.36628159 166.46486572 126.37489716 165.17362793 126.3837738 163.84326172 C126.40630378 160.29976155 126.40331981 156.75670725 126.39445233 153.21316266 C126.38934706 150.25581761 126.39663128 147.2985567 126.40392441 144.34122032 C126.42093512 137.36469403 126.41734625 130.38838639 126.40063477 123.41186523 C126.38371353 116.21292219 126.39954475 109.0145855 126.43185765 101.8157087 C126.458544 95.63639796 126.46583216 89.45727609 126.45734257 83.27791351 C126.45241026 79.58662872 126.45464463 75.89570877 126.47513008 72.20446968 C126.49687847 68.08848278 126.47809978 63.97364718 126.45532227 59.85766602 C126.46701447 58.63311203 126.47870667 57.40855804 126.49075317 56.14689636 C126.47809921 55.0266507 126.46544525 53.90640503 126.45240784 52.75221252 C126.45182153 51.77900842 126.45123522 50.80580431 126.45063114 49.80310917 C125.99876008 47.05110084 125.99876008 47.05110084 123.66490173 44.92913628 C120.37796023 42.97717544 118.54399104 42.74173247 114.74510193 42.74098206 C113.52395691 42.73114792 112.30281189 42.72131378 111.04466248 42.71118164 C109.69961267 42.72055267 108.35456566 42.73033194 107.00952148 42.74047852 C105.58671535 42.73669368 104.1639129 42.73119228 102.74111938 42.72410583 C98.88367486 42.71015638 95.02667662 42.72131654 91.16925693 42.73781705 C87.13123148 42.7516766 83.09323169 42.74520654 79.05519104 42.74168396 C72.27540908 42.73898286 65.49580426 42.75244983 58.71606445 42.77563477 C50.8776052 42.80225468 43.03944192 42.80398787 35.20095295 42.7922464 C27.65907214 42.7814685 20.1172984 42.78765507 12.5754261 42.80180168 C9.36616549 42.80756032 6.15698325 42.80747981 2.94772148 42.80273628 C-0.83051703 42.79796496 -4.60843129 42.80807425 -8.38660812 42.82969093 C-9.77333292 42.83525652 -11.16008888 42.83572616 -12.54681587 42.83073807 C-14.43910049 42.8247849 -16.33141661 42.83912415 -18.22364807 42.85450745 C-19.28274667 42.85693734 -20.34184526 42.85936724 -21.43303776 42.86187077 C-24.62757236 43.30483416 -25.99546976 43.86558057 -28.17578125 46.2421875 Z " fill="#338EFA" transform="translate(78.17578125,19.7578125)"/>
<path d="M0 0 C84.48 0 168.96 0 256 0 C256 83.49 256 166.98 256 253 C171.52 253 87.04 253 0 253 C0 169.51 0 86.02 0 0 Z M3 4 C3 84.85 3 165.7 3 249 C85.5 249 168 249 253 249 C253 168.15 253 87.3 253 4 C170.5 4 88 4 3 4 Z " fill="#000000" transform="translate(0,0)"/>
<path d="M0 0 C3.86144896 3.11641646 5.83006046 6.76793831 6.5 11.625 C6.42346823 16.3529629 4.38835439 18.5393207 1.15161133 21.80004883 C-0.85318382 23.84988533 -2.733952 25.95996796 -4.6171875 28.12109375 C-12.11468202 36.48560367 -20.21441834 44.2809597 -28.1875 52.1875 C-31.41311123 55.38636645 -34.63528644 58.58863829 -37.85546875 61.79296875 C-38.94785103 62.87290352 -38.94785103 62.87290352 -40.06230164 63.97465515 C-43.79682919 67.69133667 -47.33816329 71.45150685 -50.63813782 75.56196594 C-53.96852056 79.07862414 -57.76113495 79.95495036 -62.4375 80.125 C-67.50123782 78.5259249 -70.22864909 75.65832935 -74 72 C-75.11487193 70.95715439 -76.23226957 69.91700534 -77.3515625 68.87890625 C-79.91563427 66.50066127 -82.47068982 64.11330859 -85.01953125 61.71875 C-87.66439696 59.23865923 -90.32834156 56.7821089 -93.01171875 54.34375 C-93.65028809 53.76061035 -94.28885742 53.1774707 -94.94677734 52.57666016 C-96.16289634 51.4674807 -97.38309487 50.3627526 -98.60791016 49.26318359 C-102.40472279 45.7876998 -104.62756747 43.34100448 -105.4375 38.25 C-104.83600948 33.78178469 -102.92488673 30.41749924 -100 27 C-96.20208932 24.69117113 -93.44215808 24.34459963 -89 25 C-82.26670019 28.84396322 -76.97779922 34.9047894 -71.59765625 40.3984375 C-68.53560693 43.46509141 -65.34546104 46.24928759 -62 49 C-58.98611927 47.64941886 -56.8965323 46.14395225 -54.57421875 43.8046875 C-53.94193359 43.17046875 -53.30964844 42.53625 -52.65820312 41.8828125 C-52.00787109 41.22023437 -51.35753906 40.55765625 -50.6875 39.875 C-50.04876953 39.235625 -49.41003906 38.59625 -48.75195312 37.9375 C-45.63870452 34.79586311 -42.62793448 31.60881881 -39.75 28.25 C-35.35499532 23.16705458 -30.61409956 18.4280436 -25.86499023 13.6796875 C-24.2996661 12.11214793 -22.74255709 10.53673039 -21.18554688 8.9609375 C-20.18278058 7.95524145 -19.17954237 6.95001565 -18.17578125 5.9453125 C-16.82867065 4.59203857 -16.82867065 4.59203857 -15.4543457 3.21142578 C-10.52211835 -1.23263225 -6.3399807 -1.97771234 0 0 Z " fill="#348EFB" transform="translate(179,95)"/>
<path d="M0 0 C2.03790848 3.37960615 2.2511455 5.97096588 2.25396729 9.88725281 C2.26242676 11.69344841 2.26242676 11.69344841 2.27105713 13.53613281 C2.26498444 15.51311157 2.26498444 15.51311157 2.25878906 17.5300293 C2.26149977 18.93471966 2.26506116 20.3394086 2.26940918 21.74409485 C2.27853014 25.55842564 2.27498904 29.37264827 2.26865101 33.18698096 C2.26358452 37.18396784 2.26828473 41.1809455 2.27142334 45.17793274 C2.2750632 51.89557555 2.27026558 58.61317441 2.26074219 65.33081055 C2.24987973 73.08218699 2.25336702 80.83345804 2.264395 88.58483189 C2.2734938 95.24827684 2.27473984 101.91169019 2.26951766 108.57513934 C2.26640933 112.55093632 2.26595676 116.5266839 2.27259064 120.50247765 C2.27840045 124.24616695 2.2743012 127.98972165 2.26280212 131.73339653 C2.25892733 133.75100396 2.26481169 135.76862288 2.27105713 137.78622437 C2.22247388 148.28076928 1.71473256 157.23451262 -6 165 C-12.05542102 169.69295129 -16.82285821 171.12082232 -24.46343994 171.14044189 C-25.11049794 171.14341302 -25.75755594 171.14638414 -26.42422175 171.1494453 C-28.59044484 171.15811051 -30.75661252 171.1596387 -32.92285156 171.16113281 C-34.47694517 171.16576256 -36.03103763 171.17078743 -37.58512878 171.17617798 C-41.8063684 171.18928958 -46.02759212 171.19574461 -50.24884892 171.20018864 C-52.88754807 171.20312158 -55.5262429 171.20722683 -58.16493988 171.21169281 C-66.42493203 171.22536495 -74.68491428 171.23503279 -82.94491696 171.2388947 C-92.47210473 171.24337382 -101.99914892 171.2609161 -111.52629304 171.2898953 C-118.89544284 171.3115304 -126.2645523 171.32159997 -133.63373351 171.32293582 C-138.0326348 171.32398261 -142.43140107 171.32986343 -146.83026886 171.34775543 C-150.9704117 171.3642676 -155.11031847 171.36637642 -159.25048256 171.35761642 C-160.76616105 171.35684771 -162.2818524 171.36116688 -163.7974987 171.37107468 C-172.74750862 171.42612833 -179.90866407 171.19688535 -187.6875 166.3125 C-192.55568365 161.44431635 -195.82279914 156.10487426 -196.12304783 149.14958572 C-196.12212604 148.03974697 -196.12120424 146.92990822 -196.12025452 145.78643799 C-196.12162918 144.51040207 -196.12300385 143.23436615 -196.12442017 141.91966248 C-196.12088124 140.50796485 -196.11724644 139.09626747 -196.11352539 137.68457031 C-196.11324328 136.19631451 -196.11340171 134.70805857 -196.1139679 133.21980286 C-196.11425495 129.18090015 -196.10837305 125.14202711 -196.10139394 121.10313129 C-196.09514512 116.88172366 -196.09455539 112.66031535 -196.09336853 108.43890381 C-196.09025973 100.44564664 -196.08205241 92.45240313 -196.07201904 84.45915198 C-196.06084392 75.35887149 -196.05534392 66.25859034 -196.05032361 57.15830469 C-196.03986943 38.43886204 -196.0222787 19.71943212 -196 1 C-195.67 1 -195.34 1 -195 1 C-194.99761165 1.74930251 -194.99522329 2.49860502 -194.99276257 3.27061367 C-194.93355921 21.52481862 -194.85797501 39.77888898 -194.76428509 58.0329504 C-194.71936953 66.86057782 -194.67994512 75.68816527 -194.65356445 84.51586914 C-194.63054999 92.21244168 -194.59711355 99.90888732 -194.55129844 107.60535914 C-194.52741261 111.67846802 -194.5086535 115.75145157 -194.50238609 119.82462883 C-194.49631414 123.66357191 -194.47623877 127.50219451 -194.44572449 131.34101868 C-194.43697792 132.74497815 -194.43321463 134.14897957 -194.43499184 135.55296516 C-194.44300797 144.81313363 -193.99689581 152.46184349 -188.8125 160.3125 C-180.91992846 167.85429058 -172.82285936 167.57278073 -162.53125 167.50170898 C-160.96671056 167.50549653 -159.40217448 167.51100016 -157.83764648 167.51808167 C-153.60616932 167.53199685 -149.37510056 167.52089438 -145.14364624 167.50437045 C-140.70578729 167.49047645 -136.267951 167.49698498 -131.83007812 167.50050354 C-124.37883965 167.50320223 -116.92776257 167.48975946 -109.4765625 167.46655273 C-100.87411801 167.43994514 -92.27194329 167.43819718 -83.66947174 167.4499411 C-75.37848983 167.4607376 -67.08760507 167.45451712 -58.79663086 167.44038582 C-55.27528576 167.43464225 -51.75401212 167.43469584 -48.23266602 167.43945122 C-44.08257598 167.44423982 -39.9327796 167.43404175 -35.78274536 167.41249657 C-34.26385488 167.40695409 -32.74493603 167.40643995 -31.2260437 167.41144943 C-18.68732107 167.64343059 -18.68732107 167.64343059 -7.7578125 162.1328125 C-7.21898437 161.47023437 -6.68015625 160.80765625 -6.125 160.125 C-5.57070312 159.46757812 -5.01640625 158.81015625 -4.4453125 158.1328125 C-1.45563506 153.72101822 -0.74790325 149.95460083 -0.7215271 144.66618347 C-0.71036362 143.38877289 -0.69920013 142.1113623 -0.68769836 140.79524231 C-0.68533363 139.38717681 -0.68315794 137.97911098 -0.68115234 136.57104492 C-0.67185037 135.08263608 -0.66168129 133.59423244 -0.65071106 132.10583496 C-0.6234273 128.07114678 -0.60826648 124.03649349 -0.59528303 120.00173736 C-0.57964539 115.78296266 -0.55285718 111.56425913 -0.5272522 107.34553528 C-0.48047564 99.35942795 -0.44372609 91.37330721 -0.41057932 83.38713294 C-0.37235001 74.2940384 -0.32294196 65.20101535 -0.27259517 56.10798109 C-0.16929201 37.40537306 -0.08002634 18.70272138 0 0 Z " fill="#000001" transform="translate(224,57)"/>
<path d="M0 0 C1.43103696 -0.00350262 2.86207003 -0.00916279 4.29309082 -0.01681519 C8.17343111 -0.03105304 12.05306191 -0.01401214 15.93333435 0.00946999 C19.99624352 0.02959058 24.05912357 0.0236988 28.12207031 0.0213623 C34.94478035 0.02141586 41.76721334 0.04116489 48.58984375 0.07324219 C56.47486936 0.11013452 64.35953207 0.11891762 72.24463272 0.11194468 C79.83350774 0.10563677 87.42225847 0.11639926 95.0111084 0.13591003 C98.23907239 0.14407925 101.46697282 0.14679446 104.69494629 0.1452179 C108.49700679 0.14433816 112.29872307 0.15857883 116.10069275 0.18444443 C117.49505443 0.19159911 118.88945276 0.19369319 120.28382874 0.19032669 C122.18891713 0.18660488 124.09401276 0.20321976 125.99902344 0.2208252 C127.59735016 0.22641827 127.59735016 0.22641827 129.22796631 0.23212433 C132.53806634 0.67223287 134.43183658 1.65018296 137.109375 3.61523438 C138.39703458 6.19055353 138.23234565 8.02040586 138.22962952 10.90493774 C138.23169151 12.58768547 138.23169151 12.58768547 138.23379517 14.3044281 C138.23019989 15.54088577 138.22660461 16.77734344 138.22290039 18.05126953 C138.22304642 19.34878647 138.22319244 20.64630341 138.2233429 21.98313904 C138.2236305 25.5469703 138.21773975 29.11076808 138.21076894 32.67459154 C138.20452925 36.39685936 138.20393111 40.1191279 138.20274353 43.84140015 C138.19963204 50.89266005 138.19142109 57.94390451 138.18139404 64.9951576 C138.17022727 73.02165131 138.16472103 81.04814574 138.15969861 89.07464528 C138.14923833 105.58818403 138.13164239 122.10170723 138.109375 138.61523438 C137.779375 138.61523438 137.449375 138.61523438 137.109375 138.61523438 C137.10790844 137.94286082 137.10644188 137.27048727 137.10493088 136.57773876 C137.06790251 120.22829848 137.00894095 103.87910011 136.92547226 87.52983379 C136.88563825 79.62348267 136.85326803 71.71723171 136.83837891 63.81079102 C136.82538487 56.92068505 136.79847819 50.03079907 136.75476193 43.14081699 C136.73209604 39.49150974 136.71646735 35.84247432 136.71749115 32.19309044 C136.71837282 28.12214784 136.68819799 24.05201067 136.65527344 19.98120117 C136.6603038 18.76704025 136.66533417 17.55287933 136.67051697 16.30192566 C136.65660416 15.19554749 136.64269135 14.08916931 136.62835693 12.94926453 C136.62466976 11.98599086 136.62098259 11.02271719 136.61718369 10.03025341 C136.30312567 7.51787479 136.30312567 7.51787479 134.44978809 5.80524635 C131.50472632 4.30779328 129.44652519 4.24049076 126.14378357 4.24101257 C124.92256805 4.23399826 123.70135254 4.22698395 122.44313049 4.21975708 C121.09286334 4.22718447 119.74259784 4.23491561 118.39233398 4.24291992 C116.96805556 4.24049154 115.54377885 4.23677176 114.11950684 4.2318573 C110.25387203 4.22245184 106.38849057 4.23187026 102.52287555 4.24518943 C98.47904086 4.25650373 94.43521865 4.25239649 90.39137268 4.2504425 C83.60144917 4.24955962 76.81162551 4.26063951 70.02172852 4.27905273 C62.16798083 4.3002288 54.31437935 4.3037284 46.4606089 4.29749078 C38.90860081 4.29179959 31.35664428 4.29743932 23.80464363 4.30866432 C20.58899038 4.3133127 17.37336864 4.31418314 14.15771294 4.31207848 C10.37299217 4.3101972 6.58842058 4.31828699 2.80373383 4.33413887 C1.41335988 4.33838732 0.02297081 4.33922851 -1.36740685 4.33644867 C-3.26228384 4.33323445 -5.15716953 4.34351968 -7.05201721 4.35453796 C-8.11333642 4.35659083 -9.17465563 4.3586437 -10.26813602 4.36075878 C-13.12335894 4.42968513 -13.12335894 4.42968513 -15.890625 6.61523438 C-16.354156 9.00012248 -16.354156 9.00012248 -16.28935242 11.82901001 C-16.30815964 13.48651527 -16.30815964 13.48651527 -16.3273468 15.17750549 C-16.32519417 17.00413979 -16.32519417 17.00413979 -16.32299805 18.86767578 C-16.3331897 20.14568558 -16.34338135 21.42369537 -16.35388184 22.74043274 C-16.38153505 26.25055532 -16.39074751 29.76051592 -16.39673591 33.27073336 C-16.40609808 36.93701418 -16.43229959 40.60317295 -16.45674133 44.26937866 C-16.50046968 51.21435913 -16.52897761 58.159316 -16.55206472 65.10439241 C-16.57908256 73.0100415 -16.62299607 80.9155682 -16.66835344 88.82113004 C-16.76129037 105.08576952 -16.83292952 121.35043091 -16.890625 137.61523438 C-17.550625 137.61523438 -18.210625 137.61523438 -18.890625 137.61523438 C-19.0074327 120.49098612 -19.0956004 103.36686221 -19.14968586 86.24230671 C-19.17546634 78.291041 -19.21061355 70.34002284 -19.26782227 62.38891602 C-19.31766243 55.45861797 -19.34991716 48.52849921 -19.36106747 41.59802693 C-19.36758535 37.92837435 -19.38289983 34.25923465 -19.41927528 30.58974648 C-19.45955713 26.49294929 -19.46057407 22.39704339 -19.45825195 18.30004883 C-19.47622833 17.08372772 -19.49420471 15.86740662 -19.51272583 14.61422729 C-19.48388189 9.92445609 -19.37857904 6.56764882 -17.22331238 2.36088562 C-11.73014617 -0.51641769 -6.08110904 -0.06233342 0 0 Z " fill="#010306" transform="translate(66.890625,59.384765625)"/>
<path d="M0 0 C0.33 0 0.66 0 1 0 C1.8351937 6.68154957 1.8351937 6.68154957 -0.2421875 9.9609375 C-1.40626027 11.27521321 -2.61153841 12.55377424 -3.84863281 13.79956055 C-5.85306998 15.84971854 -7.73396261 17.95998014 -9.6171875 20.12109375 C-17.11468202 28.48560367 -25.21441834 36.2809597 -33.1875 44.1875 C-36.41311123 47.38636645 -39.63528644 50.58863829 -42.85546875 53.79296875 C-43.5837236 54.51292526 -44.31197845 55.23288177 -45.06230164 55.97465515 C-48.79682919 59.69133667 -52.33816329 63.45150685 -55.63813782 67.56196594 C-58.96852056 71.07862414 -62.76113495 71.95495036 -67.4375 72.125 C-72.50123782 70.5259249 -75.22864909 67.65832935 -79 64 C-80.11487193 62.95715439 -81.23226957 61.91700534 -82.3515625 60.87890625 C-84.91563427 58.50066127 -87.47068982 56.11330859 -90.01953125 53.71875 C-92.66439696 51.23865923 -95.32834156 48.7821089 -98.01171875 46.34375 C-98.65028809 45.76061035 -99.28885742 45.1774707 -99.94677734 44.57666016 C-101.16289634 43.4674807 -102.38309487 42.3627526 -103.60791016 41.26318359 C-108.81796683 36.49406031 -108.81796683 36.49406031 -110 33 C-110.125 29.75 -110.125 29.75 -110 27 C-108 30 -108 30 -106.69921875 32.3515625 C-104.71293292 35.4474287 -102.43298713 37.79516923 -99.8125 40.375 C-99.32418701 40.85686768 -98.83587402 41.33873535 -98.33276367 41.83520508 C-94.96414976 45.13312174 -91.48345016 48.26207721 -87.8984375 51.3203125 C-85.8228692 53.15672067 -83.88202939 55.0881694 -81.9375 57.0625 C-80.62627862 58.37627737 -79.31382643 59.68882777 -78 61 C-77.41347656 61.59554687 -76.82695313 62.19109375 -76.22265625 62.8046875 C-73.30840846 65.56694504 -70.93414499 67.35903957 -66.9375 68.125 C-60.39006393 67.91714489 -56.52545861 63.77872095 -52.06640625 59.296875 C-51.16986328 58.39839844 -50.27332031 57.49992187 -49.34960938 56.57421875 C-48.42986328 55.64222656 -47.51011719 54.71023437 -46.5625 53.75 C-45.64662109 52.83347656 -44.73074219 51.91695312 -43.78710938 50.97265625 C-39.96098538 47.12181214 -36.17824377 43.2794513 -32.66796875 39.13671875 C-29.54817391 35.49780407 -26.17452501 32.17869156 -22.734375 28.84765625 C-22.17000229 28.29824371 -21.60562958 27.74883118 -21.02415466 27.18276978 C-18.67428105 24.89582205 -16.32435583 22.60966508 -13.95019531 20.34790039 C-4.62172519 11.65094248 -4.62172519 11.65094248 0 0 Z " fill="#010407" transform="translate(184,103)"/>
</svg>
